<svg width="42" height="44" viewBox="0 0 42 44" fill="none" xmlns="http://www.w3.org/2000/svg">
<path d="M30.25 11.5C30.8542 11.5 31.3125 12.0208 31.2292 12.625L29.5208 25.8333C29.4792 26 29.4583 26.25 29.4583 26.5417C29.4583 28.0208 30.0417 28.7708 31.2292 28.7708C32.25 28.7708 33.1875 28.3333 34.0625 27.4583C34.9583 26.5833 35.6667 25.375 36.1875 23.875C36.7292 22.3125 36.9792 20.6042 36.9792 18.7083C36.9792 15.8958 36.375 13.4167 35.1667 11.2917C33.9797 9.19642 32.2054 7.49449 30.0625 6.39583C27.7342 5.21445 25.1521 4.6208 22.5417 4.66667C19.3125 4.66667 16.375 5.4375 13.75 6.95833C11.1305 8.46356 8.99202 10.6815 7.58333 13.3542C6.01293 16.3444 5.23134 19.6859 5.3125 23.0625C5.3125 26.0833 5.85417 28.8333 6.9375 31.2917C8.02042 33.7191 9.81484 35.7605 12.0833 37.1458C14.853 38.6947 17.9955 39.4515 21.1667 39.3333C25.0185 39.353 28.8263 38.5132 32.3125 36.875C32.4397 36.8051 32.5801 36.7625 32.7247 36.75C32.8693 36.7375 33.015 36.7553 33.1523 36.8024C33.2896 36.8495 33.4155 36.9247 33.5221 37.0233C33.6286 37.1219 33.7133 37.2417 33.7708 37.375L34.7292 39.6042C34.9375 40.0625 34.7708 40.5833 34.3333 40.8333C32.7292 41.7292 30.8125 42.4375 28.6042 42.9583C26.0417 43.5833 23.4375 43.875 20.7708 43.875C16.2292 43.875 12.4375 42.9583 9.35417 41.1042C6.37823 39.3775 4.00119 36.7824 2.54167 33.6667C1.01871 30.3198 0.257357 26.6767 0.312499 23C0.312499 18.3333 1.29167 14.2708 3.22917 10.8333C5.1036 7.48437 7.89292 4.73841 11.2708 2.91667C14.6458 1.04167 18.3542 0.125 22.4375 0.125C26.1875 0.125 29.5208 0.895833 32.4375 2.45833C35.3542 3.95833 37.6458 6.125 39.2708 8.91667C40.9179 11.8076 41.7529 15.0901 41.6875 18.4167C41.6875 21.25 41.2083 23.7708 40.2292 26C39.3914 28.0487 38.0079 29.8285 36.2292 31.1458C34.5208 32.3542 32.5625 32.9583 30.375 32.9583C29.1748 33.023 27.9915 32.6532 27.0417 31.9167C26.2083 31.1875 25.6875 30.2917 25.5208 29.1667C24.8958 30.3125 23.9792 31.25 22.6875 31.9583C21.3812 32.6337 19.9288 32.9772 18.4583 32.9583C17.3552 33.0024 16.257 32.788 15.2514 32.3323C14.2458 31.8765 13.3607 31.192 12.6667 30.3333C11.2708 28.5833 10.5833 26.1667 10.5833 23.0417C10.5833 20.6667 11 18.5417 11.8333 16.6875C12.7292 14.8333 13.9167 13.4167 15.4375 12.3958C16.7347 11.5206 18.2386 11.0004 19.7993 10.8871C21.3601 10.7738 22.9233 11.0713 24.3333 11.75C25.3125 12.3542 26.0417 13.1667 26.5625 14.1667L27.1875 12.1875C27.3125 11.7708 27.7083 11.5 28.1458 11.5H30.2708H30.25ZM19.7083 28.6667C21.375 28.6667 22.7292 27.9375 23.8125 26.5C24.875 25.0417 25.4167 23.1667 25.4167 20.875C25.4167 19.0417 25.0417 17.625 24.3125 16.6458C23.958 16.1536 23.487 15.7571 22.9416 15.4917C22.3962 15.2262 21.7935 15.1003 21.1875 15.125C19.5208 15.125 18.1667 15.8542 17.0833 17.2917C15.9375 18.9132 15.3656 20.8708 15.4583 22.8542C15.4583 24.7292 15.8125 26.1458 16.5208 27.1458C17.2708 28.1667 18.3333 28.6667 19.7083 28.6667Z" fill="#FF0000"/>
</svg>
