<svg width="25" height="24" viewBox="0 0 25 24" fill="none" xmlns="http://www.w3.org/2000/svg">
<g clip-path="url(#clip0_1_40)">
<path d="M15 8C15.5364 8.00066 16.0631 7.85751 16.5253 7.58547C16.9876 7.31342 17.3684 6.92242 17.6282 6.45319C17.8881 5.98395 18.0173 5.45364 18.0026 4.91749C17.9878 4.38133 17.8296 3.85893 17.5444 3.4047C17.2592 2.95046 16.8574 2.58099 16.3809 2.33478C15.9044 2.08856 15.3706 1.97459 14.835 2.00475C14.2995 2.0349 13.7819 2.20807 13.336 2.50622C12.8902 2.80438 12.5324 3.21661 12.3 3.7C12.1 4.1 12.36 4.56 12.74 4.82C13.8259 5.53011 14.5933 6.63455 14.88 7.9C14.89 7.96 14.94 8 15 8ZM17.12 13.17C16.9 13.46 16.47 13.54 16.2 13.31C15.86 13.01 15.5 12.74 15.11 12.49C14.59 12.16 14.41 11.44 14.64 10.86C14.75 10.59 14.84 10.29 14.9 9.99C15.01 9.45 15.45 8.99 16 9.07C17.6 9.27 19.04 9.99 20.15 11.05C20.45 11.32 19.9 12 19.5 12C19.0402 11.9996 18.5864 12.1049 18.1737 12.3077C17.761 12.5106 17.4005 12.8056 17.12 13.17ZM15.69 15.61C15.82 15.77 15.71 16 15.5 16C14.8405 15.9987 14.1988 16.2147 13.6744 16.6147C13.15 17.0147 12.7721 17.5764 12.599 18.2128C12.4259 18.8493 12.4674 19.525 12.7171 20.1355C12.9667 20.746 13.4106 21.2572 13.98 21.59C14.18 21.71 14.24 22 14 22H6C5.86739 22 5.74022 21.9473 5.64645 21.8536C5.55268 21.7598 5.5 21.6326 5.5 21.5V19.4C5.5 19.15 5.19 19.07 5.08 19.3C4.76 19.97 4.41 20.88 4.2 21.84C4.19065 21.8859 4.16552 21.927 4.12897 21.9562C4.09243 21.9854 4.04679 22.0009 4 22C3.60218 22 3.22065 21.842 2.93934 21.5607C2.65804 21.2794 2.5 20.8978 2.5 20.5C2.4992 18.9678 2.9677 17.4721 3.84245 16.2142C4.7172 14.9563 5.95625 13.9964 7.39289 13.4638C8.82952 12.9312 10.3948 12.8514 11.8782 13.2351C13.3616 13.6188 14.6918 14.4476 15.69 15.61ZM10 12C10.7957 12 11.5587 11.6839 12.1213 11.1213C12.6839 10.5587 13 9.79565 13 9C13 8.20435 12.6839 7.44129 12.1213 6.87868C11.5587 6.31607 10.7957 6 10 6C9.20435 6 8.44129 6.31607 7.87868 6.87868C7.31607 7.44129 7 8.20435 7 9C7 9.79565 7.31607 10.5587 7.87868 11.1213C8.44129 11.6839 9.20435 12 10 12Z" fill="white"/>
<path d="M19.5 14C19.7652 14 20.0196 14.1054 20.2071 14.2929C20.3946 14.4804 20.5 14.7348 20.5 15V18H23.5C23.7652 18 24.0196 18.1054 24.2071 18.2929C24.3946 18.4804 24.5 18.7348 24.5 19C24.5 19.2652 24.3946 19.5196 24.2071 19.7071C24.0196 19.8946 23.7652 20 23.5 20H20.5V23C20.5 23.2652 20.3946 23.5196 20.2071 23.7071C20.0196 23.8946 19.7652 24 19.5 24C19.2348 24 18.9804 23.8946 18.7929 23.7071C18.6054 23.5196 18.5 23.2652 18.5 23V20H15.5C15.2348 20 14.9804 19.8946 14.7929 19.7071C14.6054 19.5196 14.5 19.2652 14.5 19C14.5 18.7348 14.6054 18.4804 14.7929 18.2929C14.9804 18.1054 15.2348 18 15.5 18H18.5V15C18.5 14.7348 18.6054 14.4804 18.7929 14.2929C18.9804 14.1054 19.2348 14 19.5 14Z" fill="white"/>
</g>
<defs>
<clipPath id="clip0_1_40">
<rect width="24" height="24" fill="white" transform="translate(0.5)"/>
</clipPath>
</defs>
</svg>
