<svg width="24" height="24" viewBox="0 0 24 24" fill="none" xmlns="http://www.w3.org/2000/svg">
<path d="M10.81 2.86C11.19 1.71 12.81 1.71 13.19 2.86L15.08 8.69H21.2C22.4 8.69 22.91 10.23 21.93 10.94L16.98 14.54L18.88 20.36C18.9642 20.6122 18.9658 20.8846 18.8845 21.1377C18.8033 21.3908 18.6435 21.6115 18.4283 21.7676C18.2131 21.9237 17.9538 22.0071 17.6879 22.0057C17.4221 22.0044 17.1636 21.9183 16.95 21.76L12 18.16L7.05003 21.76C6.07003 22.46 4.75003 21.51 5.13003 20.36L7.02003 14.54L2.07003 10.94C1.86145 10.7836 1.70698 10.566 1.62823 10.3175C1.54947 10.069 1.55039 9.80204 1.63084 9.55408C1.71129 9.30612 1.86725 9.08951 2.07689 8.93458C2.28654 8.77964 2.53938 8.69412 2.80003 8.69H8.92003L10.82 2.86H10.81Z" fill="#FFFF07"/>
</svg>
