<svg width="25" height="24" viewBox="0 0 25 24" fill="none" xmlns="http://www.w3.org/2000/svg">
<path d="M14.75 1C15.16 1 15.5 1.34 15.5 1.75V3H20.75C21.16 3 21.5 3.34 21.5 3.75V4.25C21.5 4.66 21.16 5 20.75 5H4.25C4.05109 5 3.86032 4.92098 3.71967 4.78033C3.57902 4.63968 3.5 4.44891 3.5 4.25V3.75C3.5 3.34 3.84 3 4.25 3H9.5V1.75C9.5 1.34 9.84 1 10.25 1H14.75Z" fill="#CF5353"/>
<path fill-rule="evenodd" clip-rule="evenodd" d="M5.56003 7C5.4235 6.99976 5.28837 7.02747 5.16296 7.08143C5.03755 7.1354 4.92452 7.21447 4.83083 7.31378C4.73715 7.41309 4.66479 7.53053 4.61821 7.65887C4.57164 7.78721 4.55184 7.92372 4.56003 8.06L5.32003 20.19C5.3684 20.9523 5.7057 21.6674 6.26315 22.1895C6.82061 22.7117 7.55623 23.0015 8.32003 23H16.68C17.4438 23.0015 18.1795 22.7117 18.7369 22.1895C19.2944 21.6674 19.6317 20.9523 19.68 20.19L20.43 8.06C20.4382 7.92372 20.4184 7.78721 20.3718 7.65887C20.3253 7.53053 20.2529 7.41309 20.1592 7.31378C20.0655 7.21447 19.9525 7.1354 19.8271 7.08143C19.7017 7.02747 19.5666 6.99976 19.43 7H5.57003H5.56003ZM11.5 12C11.5 11.7348 11.3947 11.4804 11.2071 11.2929C11.0196 11.1054 10.7652 11 10.5 11C10.2348 11 9.98046 11.1054 9.79292 11.2929C9.60539 11.4804 9.50003 11.7348 9.50003 12V18C9.50003 18.2652 9.60539 18.5196 9.79292 18.7071C9.98046 18.8946 10.2348 19 10.5 19C10.7652 19 11.0196 18.8946 11.2071 18.7071C11.3947 18.5196 11.5 18.2652 11.5 18V12ZM14.5 11C14.7652 11 15.0196 11.1054 15.2071 11.2929C15.3947 11.4804 15.5 11.7348 15.5 12V18C15.5 18.2652 15.3947 18.5196 15.2071 18.7071C15.0196 18.8946 14.7652 19 14.5 19C14.2348 19 13.9805 18.8946 13.7929 18.7071C13.6054 18.5196 13.5 18.2652 13.5 18V12C13.5 11.7348 13.6054 11.4804 13.7929 11.2929C13.9805 11.1054 14.2348 11 14.5 11Z" fill="#CF5353"/>
</svg>
